<svg xmlns="http://www.w3.org/2000/svg" width="90" height="34" viewBox="0 0 90 34">
    <g fill="none" fill-rule="evenodd">
        <path fill="#3B5998" d="M3 0h84a3 3 0 0 1 3 3v28a3 3 0 0 1-3 3H3a3 3 0 0 1-3-3V3a3 3 0 0 1 3-3z"/>
        <text fill="#FFF" style="font-family: core_sans_a_45_regularregular, sans-serif;" font-size="15" font-weight="500">
            <tspan x="37" y="22">Share</tspan>
        </text>
        <path fill="#FFF" d="M17.233 26v-8.446H15v-3.041h2.233v-2.598c0-2.04 1.32-3.915 4.36-3.915 1.23 0 2.14.118 2.14.118l-.072 2.84s-.928-.01-1.94-.01c-1.097 0-1.272.506-1.272 1.344v2.22h3.3l-.144 3.042h-3.156V26h-3.216z"/>
    </g>
</svg>
