<?xml version="1.0" encoding="UTF-8"?>
<svg width="36px" height="36px" viewBox="0 0 36 36" version="1.1" xmlns="http://www.w3.org/2000/svg" xmlns:xlink="http://www.w3.org/1999/xlink">
    <!-- Generator: Sketch 55.2 (78181) - https://sketchapp.com -->
    <title>icon/social/ico-social-youtube-ghost</title>
    <desc>Created with Sketch.</desc>
    <g id="icon/social/ico-social-youtube-ghost" stroke="none" stroke-width="1" fill="none" fill-rule="evenodd">
        <circle id="Combined-Shape" stroke="#B4B4B4" fill-rule="nonzero" cx="18" cy="18" r="17.5"></circle>
        <g id="youtube" transform="translate(7.000000, 10.000000)" fill="#B4B4B4" fill-rule="nonzero">
            <path d="M21.4409836,2.39836066 C21.9098361,4.11147541 21.8918953,7.68196721 21.8918953,7.68196721 C21.8918953,7.68196721 21.8918953,11.2344262 21.4409836,12.947541 C21.1885246,13.8852459 20.4491803,14.6245902 19.5114754,14.8770492 C17.7983607,15.3278689 10.9459016,15.3278689 10.9459016,15.3278689 C10.9459016,15.3278689 4.11147541,15.3278689 2.38032787,14.8590164 C1.44262295,14.6065574 0.703278689,13.8672131 0.450819672,12.9295082 C1.95399252e-13,11.2344262 1.95399252e-13,7.66393443 1.95399252e-13,7.66393443 C1.95399252e-13,7.66393443 1.95399252e-13,4.11147541 0.450819672,2.39836066 C0.703278689,1.46065574 1.46065574,0.703278689 2.38032787,0.450819672 C4.09344262,-1.33226763e-14 10.9459016,-1.33226763e-14 10.9459016,-1.33226763e-14 C10.9459016,-1.33226763e-14 17.7983607,-1.33226763e-14 19.5114754,0.468852459 C20.4491803,0.721311475 21.1885246,1.46065574 21.4409836,2.39836066 Z M8.76393443,10.9459016 L14.4622951,7.66393443 L8.76393443,4.38196721 L8.76393443,10.9459016 Z" id="Combined-Shape"></path>
        </g>
    </g>
</svg>