<svg xmlns="http://www.w3.org/2000/svg" width="220" height="60" viewBox="0 0 220 60">
    <g fill="none" fill-rule="nonzero">
        <path fill="#F59D24" d="M83.336 57.207L73.03 48.195a1.456 1.456 0 0 0-.958-.358H11.916c-.353 0-.693.127-.959.358L.652 57.207a1.456 1.456 0 0 0 .959 2.551h80.767a1.456 1.456 0 0 0 .958-2.551z"/>
        <path fill="#F9B122" d="M72.816.749v42.719a.728.728 0 0 1-.729.728H11.916a.728.728 0 0 1-.729-.728V.748c0-.402.326-.728.729-.728h60.157a.728.728 0 0 1 .743.729zm-44.22 24.329a.967.967 0 0 0-1.71.873 15.728 15.728 0 0 0 5.977 7.203 16.64 16.64 0 0 0 18.262 0 15.728 15.728 0 0 0 5.98-7.203.967.967 0 0 0-1.713-.873 16.707 16.707 0 0 1-5.808 5.566 15.379 15.379 0 0 1-15.171 0 16.707 16.707 0 0 1-5.808-5.566h-.009zm20.68-17.022c-1.13 0-2.04 2.642-2.04 5.904s.915 5.904 2.04 5.904c1.124 0 2.039-2.642 2.039-5.904s-.898-5.904-2.028-5.904h-.011zm-14.584 0c-1.13 0-2.039 2.642-2.039 5.904s.915 5.904 2.04 5.904c1.124 0 2.038-2.642 2.038-5.904s-.906-5.904-2.027-5.904h-.012z"/>
        <path fill="#3C3C3B" d="M189.568 34.66a4.92 4.92 0 0 0-3.204 1.197.082.082 0 0 1-.134-.06v-.554a.332.332 0 0 0-.332-.33h-2.677a.332.332 0 0 0-.329.33V50.61c0 .182.147.33.33.332h2.676a.332.332 0 0 0 .332-.332v-5.243a.055.055 0 0 1 .093-.044 4.928 4.928 0 0 0 3.245 1.232c2.985 0 4.873-2.196 4.873-5.95 0-3.755-1.888-5.945-4.873-5.945zm-.813 9.277h-.221c-1.54-.105-2.304-1.293-2.304-3.33 0-2.035.76-3.224 2.304-3.325h.221c1.541.101 2.304 1.293 2.304 3.326 0 2.033-.763 3.224-2.304 3.329zM145.573 30.268h-2.677a.332.332 0 0 0-.332.33v5.379a4.922 4.922 0 0 0-3.34-1.317c-2.989 0-4.876 2.193-4.876 5.948 0 3.754 1.887 5.95 4.875 5.95a4.922 4.922 0 0 0 3.335-1.316v.722c0 .183.149.332.332.332h2.677a.332.332 0 0 0 .33-.332V30.597a.332.332 0 0 0-.324-.329zm-5.313 13.669h-.218c-1.544-.105-2.307-1.293-2.307-3.33 0-2.035.763-3.224 2.307-3.325h.218c1.541.101 2.304 1.293 2.304 3.326 0 2.033-.763 3.224-2.304 3.329zM105.224 40.054a.102.102 0 0 1 .05-.148c1.776-.717 2.851-2.13 2.851-4.215 0-3.204-2.35-4.765-6.169-4.765H96.7a.332.332 0 0 0-.332.332v14.706a.332.332 0 0 0 .332.347h2.831a.332.332 0 0 0 .33-.332v-5.202a.332.332 0 0 1 .328-.33h1.148c.407.002.781.225.976.583l2.825 4.952c.118.21.342.338.582.335h3.097a.166.166 0 0 0 .14-.254l-3.732-6.009zm-3.247-2.33h-1.8a.332.332 0 0 1-.33-.329v-3.437c0-.182.147-.33.33-.332h1.8c1.747 0 2.656.658 2.656 2.065s-.9 2.042-2.656 2.042v-.009z"/>
        <rect width="3.338" height="16.028" x="209.292" y="30.268" fill="#3C3C3B" rx="1.13"/>
        <rect width="3.338" height="16.028" x="215.659" y="30.268" fill="#3C3C3B" rx="1.13"/>
        <path fill="#3C3C3B" d="M201.591 34.66c-3.425 0-5.708 2.479-5.708 5.948 0 3.469 2.306 5.95 6.037 5.95a5.997 5.997 0 0 0 4.23-1.578.33.33 0 0 0 .014-.455l-1.407-1.596a.332.332 0 0 0-.495 0 2.834 2.834 0 0 1-2.216 1.017c-1.579 0-2.622-.833-2.852-2.26h7.719a.33.33 0 0 0 .329-.312c.014-.245.014-.527.014-.723 0-3.533-2.283-5.99-5.665-5.99zm1.98 4.762h-3.99a.33.33 0 0 1-.32-.413c.291-1.122 1.13-1.748 2.33-1.748a2.234 2.234 0 0 1 2.304 1.748.33.33 0 0 1-.323.413zM115.095 34.66c-3.425 0-5.709 2.479-5.709 5.948 0 3.469 2.307 5.95 6.038 5.95a5.997 5.997 0 0 0 4.23-1.578.332.332 0 0 0 .014-.455l-1.401-1.596a.332.332 0 0 0-.495 0 2.843 2.843 0 0 1-2.217 1.017c-1.578 0-2.621-.833-2.854-2.26h7.716a.33.33 0 0 0 .329-.312c.014-.245.014-.527.014-.723 0-3.533-2.283-5.99-5.665-5.99zm1.98 4.762h-3.99a.33.33 0 0 1-.32-.413c.291-1.122 1.13-1.748 2.33-1.748a2.234 2.234 0 0 1 2.304 1.748.33.33 0 0 1-.312.413h-.011zM127.573 34.66a7.721 7.721 0 0 0-4.433 1.392.332.332 0 0 0-.058.49l1.243 1.421c.108.125.291.15.428.058a4.212 4.212 0 0 1 2.36-.748c1.645 0 2.33.745 2.33 2.106v.603a.131.131 0 0 1-.207.104 4.686 4.686 0 0 0-2.977-.905c-2.283 0-4.217 1.34-4.217 3.69 0 2.35 1.934 3.687 4.217 3.687a4.765 4.765 0 0 0 2.81-.783.236.236 0 0 1 .374.19.33.33 0 0 0 .329.331h2.59a.33.33 0 0 0 .328-.332v-6.408c.006-2.944-1.354-4.896-5.117-4.896zm1.491 8.954a3.37 3.37 0 0 1-1.908.55c-1.098 0-1.747-.48-1.747-1.293s.638-1.296 1.747-1.296a3.35 3.35 0 0 1 1.908.553.923.923 0 0 1 0 1.486zM163.017 43.637a.125.125 0 0 1 0-.169 10.64 10.64 0 0 0 1.41-1.984.335.335 0 0 0-.042-.378l-1.57-1.786a.326.326 0 0 0-.547.085c-.29.652-.642 1.275-1.049 1.861a.18.18 0 0 1-.29 0l-2.063-2.426a.172.172 0 0 1 .05-.262c1.852-1.034 3.157-2.697 2.746-4.76-.355-1.782-1.951-3.029-3.766-3.157-3.026-.212-4.951 1.392-4.951 3.868 0 1.343.544 2.368 1.473 3.548a.175.175 0 0 1-.05.262c-1.808 1.034-2.673 2.263-2.673 4.028 0 2.458 2.15 4.17 5.182 4.17a6.824 6.824 0 0 0 3.841-1.1.125.125 0 0 1 .166.023l.641.725a.32.32 0 0 0 .248.114h2.851a.332.332 0 0 0 .248-.55l-1.855-2.112zm-7.037-9.067a1.418 1.418 0 1 1 2.834 0c0 1.01-.79 1.78-1.67 2.33l-.352-.417c-.48-.582-.812-1.141-.812-1.8v-.113zm2.7 9.012a3.02 3.02 0 0 1-1.398.399c-1.602 0-2.348-.793-2.348-1.78 0-.655.291-1.24 1.06-1.835a.332.332 0 0 1 .455.044l2.33 2.676a.33.33 0 0 1-.1.496zM176.295 37.118c-2.37-.725-3.029-1.316-3.029-2.24 0-.835.658-1.406 2.039-1.406a3.88 3.88 0 0 1 2.729 1.165.33.33 0 0 0 .475-.02l1.47-1.678a.33.33 0 0 0-.02-.46 7.395 7.395 0 0 0-4.983-1.803c-3.359 0-5.243 1.8-5.243 4.345 0 2.22 1.384 3.842 4.61 4.765 2.878.813 3.339 1.384 3.339 2.415 0 .944-.857 1.558-2.35 1.558a4.951 4.951 0 0 1-3.516-1.526.326.326 0 0 0-.475.02l-1.588 1.806a.335.335 0 0 0 .027.466 8.464 8.464 0 0 0 5.726 2.04c3.495 0 5.706-1.845 5.706-4.612 0-2.595-1.579-3.824-4.917-4.835zM99.562 22.794c0 .182.147.33.33.33h2.83a.33.33 0 0 0 .332-.33V10.96h4.396a.332.332 0 0 0 .329-.332V8.085a.332.332 0 0 0-.33-.329H95.168a.332.332 0 0 0-.332.33v2.542c0 .184.149.332.332.332h4.395v11.834zM113.126 23.388c3.513 0 5.825-2.46 5.825-5.95s-2.303-5.95-5.825-5.95c-3.521 0-5.825 2.458-5.825 5.95s2.313 5.95 5.825 5.95zm0-9.288c1.678 0 2.662 1.209 2.662 3.338s-.984 3.338-2.662 3.338c-1.677 0-2.665-1.209-2.665-3.338 0-2.13.985-3.338 2.665-3.338zM126.291 23.388c3.382 0 5.51-1.747 5.51-5.205v-6.116a.326.326 0 0 0-.328-.33h-2.677a.326.326 0 0 0-.329.33v6.009c0 1.602-.923 2.394-2.176 2.394-1.252 0-2.173-.792-2.173-2.394v-5.994a.33.33 0 0 0-.329-.33h-2.676a.33.33 0 0 0-.332.33v6.116c0 3.434 2.132 5.19 5.51 5.19zM153.9 16.185v6.61a.33.33 0 0 0 .332.328h2.674a.33.33 0 0 0 .332-.329v-6.958c0-2.854-1.602-4.349-3.973-4.349a5.368 5.368 0 0 0-3.446 1.267.175.175 0 0 1-.29-.134V7.427a.33.33 0 0 0-.33-.329h-2.677a.33.33 0 0 0-.332.33v15.366a.33.33 0 0 0 .332.33h2.677a.33.33 0 0 0 .33-.33v-5.027a4.078 4.078 0 0 1 1.377-3.102c.318-.321.74-.52 1.191-.56 1.212-.005 1.803.75 1.803 2.08z"/>
        <rect width="6.454" height="2.569" x="159.783" y="14.563" fill="#3C3C3B" rx="1.13"/>
        <path fill="#3C3C3B" d="M182.292 22.925l-1.71 4.631a.166.166 0 0 0 .155.222h2.642a.661.661 0 0 0 .62-.431l5.685-15.373a.163.163 0 0 0-.154-.222h-2.656a.661.661 0 0 0-.624.437l-2.411 6.763-2.54-6.771a.658.658 0 0 0-.617-.429h-2.68a.163.163 0 0 0-.152.228l4.442 10.945zM202.748 17.438c0-3.755-1.888-5.95-4.873-5.95a4.934 4.934 0 0 0-3.204 1.196.079.079 0 0 1-.134-.058v-.544a.33.33 0 0 0-.33-.33h-2.676a.33.33 0 0 0-.332.33v15.367a.33.33 0 0 0 .332.329h2.677a.33.33 0 0 0 .329-.33v-5.242a.058.058 0 0 1 .096-.041 4.92 4.92 0 0 0 3.242 1.232c2.985-.009 4.873-2.205 4.873-5.96zm-5.686 3.338h-.221c-1.541-.102-2.304-1.29-2.304-3.326s.763-3.225 2.304-3.327h.221c1.54.102 2.304 1.29 2.304 3.327 0 2.035-.763 3.224-2.304 3.326zM209.898 11.487c-3.422 0-5.706 2.482-5.706 5.95 0 3.47 2.313 5.951 6.035 5.951a5.977 5.977 0 0 0 4.23-1.581.323.323 0 0 0 .014-.452l-1.398-1.596a.33.33 0 0 0-.495 0 2.843 2.843 0 0 1-2.217 1.017c-1.581 0-2.621-.836-2.854-2.263h7.712a.326.326 0 0 0 .33-.31c.014-.244.014-.53.014-.721 0-3.536-2.283-5.995-5.665-5.995zm1.98 4.765h-3.987a.332.332 0 0 1-.323-.413c.291-1.122 1.133-1.748 2.33-1.748a2.237 2.237 0 0 1 2.307 1.748.332.332 0 0 1-.326.413zM139.683 23.388a5.921 5.921 0 0 0 4.332-1.712.332.332 0 0 0 0-.446l-1.428-1.625a.332.332 0 0 0-.512.02 2.572 2.572 0 0 1-2.179 1.165c-1.692 0-2.592-1.296-2.592-3.338 0-2.041.9-3.337 2.592-3.337a2.575 2.575 0 0 1 2.179 1.147.326.326 0 0 0 .51.023l1.427-1.628a.323.323 0 0 0 0-.442 5.921 5.921 0 0 0-4.331-1.713c-3.533 0-5.75 2.481-5.75 5.95 0 3.47 2.22 5.936 5.752 5.936zM170.616 18.71c0 3.295 1.054 4.678 4.127 4.678.582 0 1.08-.017 1.59-.06a.33.33 0 0 0 .291-.327v-1.902a.332.332 0 0 0-.343-.33h-.603c-1.317 0-1.748-.462-1.748-1.747v-4.718h2.348a.332.332 0 0 0 .332-.332v-1.908a.33.33 0 0 0-.332-.329h-2.348V8.68a.332.332 0 0 0-.329-.332h-2.677a.332.332 0 0 0-.332.332v3.072h-1.602a.33.33 0 0 0-.329.33v1.899c0 .182.147.33.33.332h1.601l.024 4.398z"/>
    </g>
</svg>
