<svg xmlns="http://www.w3.org/2000/svg" width="90" height="34" viewBox="0 0 90 34">
    <g fill="none" fill-rule="evenodd">
        <path fill="#1DA1F2" d="M3 0h84a3 3 0 0 1 3 3v28a3 3 0 0 1-3 3H3a3 3 0 0 1-3-3V3a3 3 0 0 1 3-3z"/>
        <text fill="#FFF" style="font-family: core_sans_a_45_regularregular, sans-serif;" font-size="15" font-weight="500">
            <tspan x="37" y="22">Share</tspan>
        </text>
        <path fill="#FFF" d="M28.226 11.657a7.066 7.066 0 0 1-2.03.557 3.546 3.546 0 0 0 1.554-1.956c-.683.406-1.44.7-2.244.858a3.534 3.534 0 0 0-6.022 3.224 10.032 10.032 0 0 1-7.285-3.693 3.533 3.533 0 0 0 1.094 4.719 3.522 3.522 0 0 1-1.6-.442l-.001.044a3.536 3.536 0 0 0 2.835 3.465 3.538 3.538 0 0 1-1.596.061 3.538 3.538 0 0 0 3.301 2.454A7.091 7.091 0 0 1 11 22.412 10.002 10.002 0 0 0 16.418 24c6.5 0 10.055-5.386 10.055-10.056 0-.153-.003-.305-.01-.457a7.195 7.195 0 0 0 1.763-1.83z"/>
    </g>
</svg>
